<?xml version="1.0" encoding="UTF-8"?>
<svg xmlns="http://www.w3.org/2000/svg" viewBox="0 0 64 64" width="512" height="512"><g id="martini-party-happy-dating-drink"><path d="M54,13H44.39l6.16-7.11L62.24,2.97l-.48-1.94-12,3a1.017,1.017,0,0,0-.52.32L41.74,13H24a11.078,11.078,0,1,0-6.68,10.09L31,37.4V56H24a1.033,1.033,0,0,0-.71.29l-4,4a1,1,0,0,0-.21,1.09A.987.987,0,0,0,20,62H44a.987.987,0,0,0,.92-.62,1,1,0,0,0-.21-1.09l-4-4A1.033,1.033,0,0,0,40,56H33V37.4L54.72,14.69a.983.983,0,0,0,.2-1.08A1,1,0,0,0,54,13ZM40.01,15l-.98,1.13a27.132,27.132,0,0,0-7.26.9,25.593,25.593,0,0,1-6.98.84,25.092,25.092,0,0,1-6.99-.85,28.233,28.233,0,0,0-4.25-.76L12.34,15ZM13,22a9,9,0,1,1,9-9H10a1,1,0,0,0-.92.61.983.983,0,0,0,.2,1.08l6.54,6.84A9.015,9.015,0,0,1,13,22Zm2.8-3.38c.53.11,1.02.23,1.53.35a27.452,27.452,0,0,0,7.46.9,27.4,27.4,0,0,0,7.44-.9,25.555,25.555,0,0,1,5.02-.79l-1.13,1.31A4.89,4.89,0,0,0,34,19a4.986,4.986,0,0,0-4.17,7.74l-2.98,3.43ZM37,24a3,3,0,1,1-3-3A3.009,3.009,0,0,1,37,24Zm2.59,34,2,2H22.41l2-2ZM32,35.55l-3.76-3.92,3-3.47A4.94,4.94,0,0,0,34,29a4.978,4.978,0,0,0,3.72-8.31l2.21-2.55a24.853,24.853,0,0,1,6.26.83c.44.11.89.22,1.37.32ZM49.21,17.56c-.94-.15-1.73-.33-2.54-.53a26.646,26.646,0,0,0-5.06-.83L42.66,15h9Z"/></g></svg>
